<?xml version="1.0" encoding="UTF-8" standalone="no"?><svg xmlns="http://www.w3.org/2000/svg" xmlns:xlink="http://www.w3.org/1999/xlink" clip-rule="evenodd" stroke-miterlimit="4.00" viewBox="0 0 960 540"><desc>SVG generated by Keynote</desc><defs></defs><g transform="matrix(1.00, 0.00, -0.00, -1.00, 0.0, 540.0)"><g><clipPath id="clip-141"><path d="M 0.0 540.0 L 960.0 540.0 L 960.0 0.0 L 0.0 0.0 Z M 0.0 540.0 "></path></clipPath><g clip-path="url(#clip-141)"><image xlink:href="415ADC24002C7F243EF7D2FC002A5FE5.png" width="960.00" height="540.00" transform="matrix(1.00, 0.00, -0.00, -1.00, 0.0, 540.0)"></image></g></g><image xlink:href="6E7B9AB460E236B9DEC849A6F7D7D168.png" width="457.00" height="144.00" transform="matrix(1.00, 0.00, -0.00, -1.00, 252.0, 213.0)"></image><text xml:space="preserve" font-family="Arial-BoldMT" font-weight="bold" font-size="36.0" fill="#FFFFFF" transform="matrix(1.00, 0.00, -0.00, -1.00, 195.0, 396.0)">A</text><text xml:space="preserve" font-family="Arial-BoldMT" font-weight="bold" font-size="36.0" fill="#FFFFFF" transform="matrix(1.00, 0.00, -0.00, -1.00, 221.0, 396.0)">n</text><text xml:space="preserve" font-family="Arial-BoldMT" font-weight="bold" font-size="36.0" fill="#FFFFFF" transform="matrix(1.00, 0.00, -0.00, -1.00, 243.0, 396.0)">d</text><text xml:space="preserve" font-family="Arial-BoldMT" font-weight="bold" font-size="36.0" fill="#FFFFFF" transform="matrix(1.00, 0.00, -0.00, -1.00, 265.0, 396.0)">r</text><text xml:space="preserve" font-family="Arial-BoldMT" font-weight="bold" font-size="36.0" fill="#FFFFFF" transform="matrix(1.00, 0.00, -0.00, -1.00, 279.0, 396.0)">o</text><text xml:space="preserve" font-family="Arial-BoldMT" font-weight="bold" font-size="36.0" fill="#FFFFFF" transform="matrix(1.00, 0.00, -0.00, -1.00, 301.0, 396.0)">i</text><text xml:space="preserve" font-family="Arial-BoldMT" font-weight="bold" font-size="36.0" fill="#FFFFFF" transform="matrix(1.00, 0.00, -0.00, -1.00, 311.0, 396.0)">d</text><text xml:space="preserve" font-family="Arial-BoldMT" font-weight="bold" font-size="36.0" fill="#FFFFFF" transform="matrix(1.00, 0.00, -0.00, -1.00, 332.9, 396.0)"> </text><text xml:space="preserve" font-family="Arial-BoldMT" font-weight="bold" font-size="36.0" fill="#FFFFFF" transform="matrix(1.00, 0.00, -0.00, -1.00, 341.6, 396.0)">A</text><text xml:space="preserve" font-family="Arial-BoldMT" font-weight="bold" font-size="36.0" fill="#FFFFFF" transform="matrix(1.00, 0.00, -0.00, -1.00, 367.6, 396.0)">n</text><text xml:space="preserve" font-family="Arial-BoldMT" font-weight="bold" font-size="36.0" fill="#FFFFFF" transform="matrix(1.00, 0.00, -0.00, -1.00, 389.6, 396.0)">n</text><text xml:space="preserve" font-family="Arial-BoldMT" font-weight="bold" font-size="36.0" fill="#FFFFFF" transform="matrix(1.00, 0.00, -0.00, -1.00, 411.6, 396.0)">o</text><text xml:space="preserve" font-family="Arial-BoldMT" font-weight="bold" font-size="36.0" fill="#FFFFFF" transform="matrix(1.00, 0.00, -0.00, -1.00, 433.6, 396.0)">t</text><text xml:space="preserve" font-family="Arial-BoldMT" font-weight="bold" font-size="36.0" fill="#FFFFFF" transform="matrix(1.00, 0.00, -0.00, -1.00, 445.6, 396.0)">a</text><text xml:space="preserve" font-family="Arial-BoldMT" font-weight="bold" font-size="36.0" fill="#FFFFFF" transform="matrix(1.00, 0.00, -0.00, -1.00, 465.6, 396.0)">t</text><text xml:space="preserve" font-family="Arial-BoldMT" font-weight="bold" font-size="36.0" fill="#FFFFFF" transform="matrix(1.00, 0.00, -0.00, -1.00, 477.6, 396.0)">i</text><text xml:space="preserve" font-family="Arial-BoldMT" font-weight="bold" font-size="36.0" fill="#FFFFFF" transform="matrix(1.00, 0.00, -0.00, -1.00, 487.6, 396.0)">o</text><text xml:space="preserve" font-family="Arial-BoldMT" font-weight="bold" font-size="36.0" fill="#FFFFFF" transform="matrix(1.00, 0.00, -0.00, -1.00, 509.5, 396.0)">n</text><text xml:space="preserve" font-family="Arial-BoldMT" font-weight="bold" font-size="36.0" fill="#FFFFFF" transform="matrix(1.00, 0.00, -0.00, -1.00, 531.5, 396.0)"> </text><text xml:space="preserve" font-family="Arial-BoldMT" font-weight="bold" font-size="36.0" fill="#FFFFFF" transform="matrix(1.00, 0.00, -0.00, -1.00, 541.5, 396.0)">a</text><text xml:space="preserve" font-family="Arial-BoldMT" font-weight="bold" font-size="36.0" fill="#FFFFFF" transform="matrix(1.00, 0.00, -0.00, -1.00, 561.6, 396.0)">n</text><text xml:space="preserve" font-family="Arial-BoldMT" font-weight="bold" font-size="36.0" fill="#FFFFFF" transform="matrix(1.00, 0.00, -0.00, -1.00, 583.5, 396.0)">d</text><text xml:space="preserve" font-family="Arial-BoldMT" font-weight="bold" font-size="36.0" fill="#FFFFFF" transform="matrix(1.00, 0.00, -0.00, -1.00, 605.5, 396.0)"> </text><text xml:space="preserve" font-family="Arial-BoldMT" font-weight="bold" font-size="36.0" fill="#FFFFFF" transform="matrix(1.00, 0.00, -0.00, -1.00, 615.5, 396.0)"> </text><text xml:space="preserve" font-family="Arial-BoldMT" font-weight="bold" font-size="36.0" fill="#FFFFFF" transform="matrix(1.00, 0.00, -0.00, -1.00, 624.2, 396.0)">A</text><text xml:space="preserve" font-family="Arial-BoldMT" font-weight="bold" font-size="36.0" fill="#FFFFFF" transform="matrix(1.00, 0.00, -0.00, -1.00, 650.2, 396.0)">s</text><text xml:space="preserve" font-family="Arial-BoldMT" font-weight="bold" font-size="36.0" fill="#FFFFFF" transform="matrix(1.00, 0.00, -0.00, -1.00, 670.2, 396.0)">p</text><text xml:space="preserve" font-family="Arial-BoldMT" font-weight="bold" font-size="36.0" fill="#FFFFFF" transform="matrix(1.00, 0.00, -0.00, -1.00, 692.2, 396.0)">e</text><text xml:space="preserve" font-family="Arial-BoldMT" font-weight="bold" font-size="36.0" fill="#FFFFFF" transform="matrix(1.00, 0.00, -0.00, -1.00, 712.2, 396.0)">c</text><text xml:space="preserve" font-family="Arial-BoldMT" font-weight="bold" font-size="36.0" fill="#FFFFFF" transform="matrix(1.00, 0.00, -0.00, -1.00, 732.2, 396.0)">t</text><text xml:space="preserve" font-family="Arial-BoldMT" font-weight="bold" font-size="36.0" fill="#FFFFFF" transform="matrix(1.00, 0.00, -0.00, -1.00, 744.2, 396.0)">J</text><text xml:space="preserve" font-family="Arial-BoldMT" font-weight="bold" font-size="36.0" fill="#FFFFFF" transform="matrix(1.00, 0.00, -0.00, -1.00, 764.3, 396.0)"> </text><text xml:space="preserve" font-family="ArialMT" font-size="24.0" fill="#B9EDFF" transform="matrix(1.00, 0.00, -0.00, -1.00, 390.0, 348.0)">b</text><text xml:space="preserve" font-family="ArialMT" font-size="24.0" fill="#B9EDFF" transform="matrix(1.00, 0.00, -0.00, -1.00, 403.4, 348.0)">y</text><text xml:space="preserve" font-family="ArialMT" font-size="24.0" fill="#B9EDFF" transform="matrix(1.00, 0.00, -0.00, -1.00, 415.4, 348.0)"> </text><text xml:space="preserve" font-family="ArialMT" font-size="24.0" fill="#B9EDFF" transform="matrix(1.00, 0.00, -0.00, -1.00, 422.0, 348.0)"> </text><text xml:space="preserve" font-family="ArialMT" font-size="24.0" fill="#B9EDFF" transform="matrix(1.00, 0.00, -0.00, -1.00, 428.7, 348.0)">z</text><text xml:space="preserve" font-family="ArialMT" font-size="24.0" fill="#B9EDFF" transform="matrix(1.00, 0.00, -0.00, -1.00, 440.7, 348.0)">h</text><text xml:space="preserve" font-family="ArialMT" font-size="24.0" fill="#B9EDFF" transform="matrix(1.00, 0.00, -0.00, -1.00, 454.0, 348.0)">e</text><text xml:space="preserve" font-family="ArialMT" font-size="24.0" fill="#B9EDFF" transform="matrix(1.00, 0.00, -0.00, -1.00, 467.4, 348.0)">n</text><text xml:space="preserve" font-family="ArialMT" font-size="24.0" fill="#B9EDFF" transform="matrix(1.00, 0.00, -0.00, -1.00, 480.7, 348.0)">g</text><text xml:space="preserve" font-family="ArialMT" font-size="24.0" fill="#B9EDFF" transform="matrix(1.00, 0.00, -0.00, -1.00, 494.1, 348.0)">x</text><text xml:space="preserve" font-family="ArialMT" font-size="24.0" fill="#B9EDFF" transform="matrix(1.00, 0.00, -0.00, -1.00, 506.1, 348.0)">i</text><text xml:space="preserve" font-family="ArialMT" font-size="24.0" fill="#B9EDFF" transform="matrix(1.00, 0.00, -0.00, -1.00, 511.4, 348.0)">a</text><text xml:space="preserve" font-family="ArialMT" font-size="24.0" fill="#B9EDFF" transform="matrix(1.00, 0.00, -0.00, -1.00, 524.8, 348.0)">o</text><text xml:space="preserve" font-family="ArialMT" font-size="24.0" fill="#B9EDFF" transform="matrix(1.00, 0.00, -0.00, -1.00, 538.1, 348.0)">b</text><text xml:space="preserve" font-family="ArialMT" font-size="24.0" fill="#B9EDFF" transform="matrix(1.00, 0.00, -0.00, -1.00, 551.5, 348.0)">i</text><text xml:space="preserve" font-family="ArialMT" font-size="24.0" fill="#B9EDFF" transform="matrix(1.00, 0.00, -0.00, -1.00, 556.8, 348.0)">n</text><text xml:space="preserve" font-family="ArialMT" font-size="24.0" fill="#B9EDFF" transform="matrix(1.00, 0.00, -0.00, -1.00, 570.1, 348.0)"> </text></g></svg>