<?xml version="1.0" encoding="UTF-8" standalone="no"?><svg xmlns="http://www.w3.org/2000/svg" xmlns:xlink="http://www.w3.org/1999/xlink" clip-rule="evenodd" stroke-miterlimit="4.00" viewBox="0 0 960 540"><desc>SVG generated by Keynote</desc><defs></defs><g transform="matrix(1.00, 0.00, -0.00, -1.00, 0.0, 540.0)"><g><clipPath id="clip-194"><path d="M 0.0 540.0 L 960.0 540.0 L 960.0 0.0 L 0.0 0.0 Z M 0.0 540.0 "></path></clipPath><g clip-path="url(#clip-194)"><image xlink:href="../../E6DF1293-4EFB-4003-9657-94ED2FAA7AF6/assets/1CC8AFD2D03723D146F7AF0A8D98FE3F.jpeg" width="960.00" height="539.00" transform="matrix(1.00, 0.00, -0.00, -1.00, 0.0, 540.0)"></image></g></g><path d="M 845.1 540.0 L 960.0 540.0 L 960.0 425.7 L 958.1 425.2 C 949.0 423.6 939.2 424.7 930.9 428.5 C 926.5 418.0 915.0 409.9 900.5 407.3 C 883.5 404.3 865.7 409.4 856.0 420.3 C 833.0 410.0 803.1 415.8 789.7 433.1 C 776.6 431.9 764.3 437.9 760.6 447.3 C 757.9 454.1 760.3 461.4 766.8 466.6 C 757.6 470.6 752.4 478.4 753.7 486.3 C 755.2 495.6 765.2 502.9 777.7 503.8 C 777.8 504.0 777.8 504.1 777.9 504.3 C 776.2 513.5 780.2 522.7 788.6 529.5 C 802.0 540.2 823.6 542.6 840.6 535.3 L 840.6 535.3 Z M 845.1 540.0 " fill="#8EC9ED" fill-opacity="0.15"></path><path d="M 606.7 478.0 C 605.8 482.7 610.2 487.0 616.6 487.7 C 619.2 487.9 621.8 487.5 624.0 486.6 C 626.4 489.9 631.9 491.1 636.4 489.4 C 637.1 489.1 637.9 488.7 638.5 488.2 C 640.3 491.0 644.8 492.1 648.5 490.7 C 649.5 490.3 650.4 489.8 651.1 489.1 C 654.1 491.7 659.4 492.0 662.9 489.8 C 664.3 488.9 665.3 487.6 665.7 486.2 C 670.5 485.2 673.4 481.5 672.1 477.9 C 672.0 477.6 671.8 477.3 671.7 477.0 C 675.6 473.2 674.6 467.8 669.5 464.9 C 668.0 464.0 666.1 463.4 664.1 463.2 C 664.1 459.2 659.7 455.9 654.2 455.9 C 652.3 455.9 650.5 456.3 648.9 457.0 C 647.1 452.5 640.6 449.9 634.5 451.3 C 631.9 451.9 629.7 453.1 628.2 454.7 C 622.0 451.9 613.8 453.4 610.1 458.1 C 610.0 458.1 610.0 458.2 609.9 458.3 L 609.9 458.3 C 605.8 457.9 602.1 460.1 601.6 463.1 C 601.4 464.7 602.1 466.3 603.6 467.5 C 600.1 469.1 598.9 472.5 600.9 475.1 C 602.1 476.6 604.3 477.6 606.6 477.8 Z M 606.7 478.0 " fill="#8EC9ED" fill-opacity="0.19"></path><path d="M 12.8 481.8 C 12.4 484.3 14.8 486.7 18.2 487.0 C 19.6 487.2 21.1 486.9 22.3 486.4 C 23.6 488.2 26.6 488.9 29.0 487.9 C 29.4 487.8 29.8 487.6 30.1 487.3 C 31.2 488.8 33.6 489.4 35.6 488.7 C 36.2 488.5 36.7 488.2 37.0 487.8 C 38.6 489.2 41.5 489.4 43.4 488.2 C 44.2 487.7 44.8 487.0 44.9 486.2 C 47.6 485.7 49.2 483.7 48.4 481.7 C 48.4 481.5 48.3 481.4 48.2 481.2 C 50.3 479.2 49.8 476.2 47.0 474.6 C 46.2 474.2 45.2 473.8 44.1 473.7 C 44.1 471.5 41.7 469.7 38.7 469.7 C 37.7 469.7 36.7 469.9 35.8 470.3 C 34.8 467.9 31.3 466.5 28.0 467.2 C 26.6 467.5 25.4 468.2 24.6 469.1 C 21.2 467.6 16.7 468.4 14.7 470.9 C 14.7 471.0 14.6 471.0 14.6 471.0 C 12.4 470.8 10.4 472.0 10.1 473.6 C 10.0 474.5 10.4 475.4 11.2 476.1 C 9.2 476.9 8.6 478.7 9.7 480.2 C 10.4 481.0 11.5 481.6 12.8 481.7 Z M 12.8 481.8 " fill="#8EC9ED" fill-opacity="0.19"></path><g><clipPath id="clip-195"><path d="M -1.0 540.0 L 960.0 540.0 L 960.0 0.0 L -1.0 0.0 Z M -0.9 540.0 "></path></clipPath><g clip-path="url(#clip-195)"><image xlink:href="../../2FAF2D5D-3D26-449E-AF20-0E0A2C3AB830/assets/F11CB0C85194FF0F25CF705B0F7D09D0.jpeg" width="1126.00" height="847.00" transform="matrix(1.00, 0.00, -0.00, -0.74, -159.0, 541.0)"></image></g></g><path d="M 806.8 540.0 L 960.0 540.0 L 960.0 425.7 L 957.5 425.2 C 945.4 423.6 932.3 424.7 921.2 428.5 C 915.4 418.0 900.0 409.9 880.7 407.3 C 858.0 404.3 834.3 409.4 821.3 420.3 C 790.6 410.0 750.8 415.8 733.0 433.1 C 715.5 431.9 699.1 437.9 694.2 447.3 C 690.6 454.1 693.8 461.4 702.5 466.6 C 690.1 470.6 683.2 478.4 685.0 486.3 C 687.0 495.6 700.3 502.9 716.9 503.8 C 717.0 504.0 717.1 504.1 717.2 504.3 C 715.0 513.5 720.2 522.7 731.5 529.5 C 749.3 540.2 778.2 542.6 800.8 535.3 L 800.8 535.3 Z M 806.8 540.0 " fill="#8EC9ED" fill-opacity="0.15"></path><path d="M 488.9 478.0 C 487.8 482.7 493.7 487.0 502.1 487.7 C 505.6 487.9 509.0 487.5 512.0 486.6 C 515.2 489.9 522.5 491.1 528.5 489.4 C 529.5 489.1 530.5 488.7 531.3 488.2 C 533.8 491.0 539.8 492.1 544.7 490.7 C 546.1 490.3 547.3 489.8 548.2 489.1 C 552.2 491.7 559.2 492.0 563.8 489.8 C 565.8 488.9 567.1 487.6 567.6 486.2 C 574.1 485.2 577.9 481.5 576.1 477.9 C 576.0 477.6 575.8 477.3 575.6 477.0 C 580.8 473.2 579.5 467.8 572.7 464.9 C 570.6 464.0 568.1 463.4 565.5 463.2 C 565.5 459.2 559.6 455.9 552.3 455.9 C 549.8 455.9 547.4 456.3 545.3 457.0 C 542.8 452.5 534.2 449.9 526.0 451.3 C 522.6 451.9 519.7 453.1 517.7 454.7 C 509.3 451.9 498.5 453.4 493.5 458.1 C 493.4 458.1 493.3 458.2 493.3 458.3 L 493.3 458.3 C 487.8 457.9 482.9 460.1 482.2 463.1 C 481.9 464.7 482.8 466.3 484.8 467.5 L 484.8 467.5 C 480.1 469.1 478.5 472.5 481.3 475.1 C 482.9 476.6 485.7 477.6 488.8 477.8 Z M 488.9 478.0 " fill="#8EC9ED" fill-opacity="0.19"></path><path d="M 17.1 481.8 C 16.5 484.3 19.7 486.7 24.3 487.0 C 26.2 487.2 28.1 486.9 29.7 486.4 C 31.4 488.2 35.4 488.9 38.7 487.9 C 39.2 487.8 39.7 487.6 40.2 487.3 C 41.5 488.8 44.8 489.4 47.5 488.7 C 48.2 488.5 48.9 488.2 49.4 487.8 C 51.5 489.2 55.3 489.4 57.9 488.2 C 59.0 487.7 59.7 487.0 59.9 486.2 C 63.5 485.7 65.5 483.7 64.6 481.7 C 64.5 481.5 64.4 481.4 64.3 481.2 C 67.1 479.2 66.4 476.2 62.7 474.6 C 61.6 474.2 60.2 473.8 58.8 473.7 C 58.8 471.5 55.6 469.7 51.6 469.7 C 50.2 469.7 48.9 469.9 47.8 470.3 C 46.4 467.9 41.8 466.5 37.3 467.2 C 35.5 467.5 33.8 468.2 32.8 469.1 C 28.2 467.6 22.3 468.4 19.6 470.9 C 19.6 471.0 19.5 471.0 19.5 471.0 L 19.5 471.0 C 16.5 470.8 13.8 472.0 13.5 473.6 C 13.3 474.5 13.8 475.4 14.9 476.1 C 12.3 476.9 11.5 478.7 13.0 480.2 C 13.8 481.0 15.4 481.6 17.1 481.7 Z M 17.1 481.8 " fill="#8EC9ED" fill-opacity="0.19"></path><image xlink:href="../../C87EFDE7-C7FC-4675-B74F-9E1B419228B3/assets/57E0FAD3C26E51DA230032653CB135D1.png" width="609.00" height="169.00" transform="matrix(1.00, 0.00, -0.00, -1.00, 134.0, 455.0)"></image></g></svg>